<?xml version="1.0" encoding="UTF-8"?>
<svg xmlns="http://www.w3.org/2000/svg" xmlns:xlink="http://www.w3.org/1999/xlink" width="1125pt" height="1125pt" viewBox="0 0 1125 1125" version="1.1">
<defs>
<clipPath id="clip1">
  <path d="M 0 0 L 1125 0 L 1125 1125 L 0 1125 Z M 0 0 "/>
</clipPath>
<linearGradient id="linear0" gradientUnits="userSpaceOnUse" x1="361.457031" y1="253.511719" x2="361.457031" y2="-1.183594" gradientTransform="matrix(0.75,0,0,0.75,697.5,322.000011)">
<stop offset="0" style="stop-color:rgb(58.823529%,82.745098%,93.333333%);stop-opacity:1;"/>
<stop offset="0.0955" style="stop-color:rgb(58.823529%,82.745098%,93.333333%);stop-opacity:1;"/>
<stop offset="0.1384" style="stop-color:rgb(54.901961%,81.568627%,93.333333%);stop-opacity:1;"/>
<stop offset="0.2097" style="stop-color:rgb(42.352941%,78.431373%,93.333333%);stop-opacity:1;"/>
<stop offset="0.3001" style="stop-color:rgb(7.843137%,73.333333%,92.941176%);stop-opacity:1;"/>
<stop offset="0.3596" style="stop-color:rgb(0%,70.196078%,92.54902%);stop-opacity:1;"/>
<stop offset="0.5955" style="stop-color:rgb(0%,65.490196%,89.803922%);stop-opacity:1;"/>
<stop offset="0.8483" style="stop-color:rgb(0%,69.411765%,91.372549%);stop-opacity:1;"/>
<stop offset="1" style="stop-color:rgb(48.235294%,80%,92.941176%);stop-opacity:1;"/>
</linearGradient>
<linearGradient id="linear1" gradientUnits="userSpaceOnUse" x1="185.605469" y1="258.945313" x2="185.605469" y2="-1.191406" gradientTransform="matrix(0.75,0,0,0.75,72.5,319.5)">
<stop offset="0" style="stop-color:rgb(0.784314%,35.294118%,65.098039%);stop-opacity:1;"/>
<stop offset="0.0457" style="stop-color:rgb(0%,41.176471%,69.411765%);stop-opacity:1;"/>
<stop offset="0.1101" style="stop-color:rgb(0%,48.235294%,74.901961%);stop-opacity:1;"/>
<stop offset="0.1748" style="stop-color:rgb(0%,54.509804%,80%);stop-opacity:1;"/>
<stop offset="0.2391" style="stop-color:rgb(0%,58.823529%,83.137255%);stop-opacity:1;"/>
<stop offset="0.3028" style="stop-color:rgb(0%,61.960784%,85.490196%);stop-opacity:1;"/>
<stop offset="0.3652" style="stop-color:rgb(0%,62.745098%,86.666667%);stop-opacity:1;"/>
<stop offset="1" style="stop-color:rgb(11.764706%,28.235294%,61.960784%);stop-opacity:1;"/>
</linearGradient>
</defs>
<g id="surface0">
<g clip-path="url(#clip1)" clip-rule="nonzero">
<path style=" stroke:none;fill-rule:nonzero;fill:rgb(42.745098%,43.529412%,44.313725%);fill-opacity:1;" d="M 622.644531 482.851563 C 685.601563 381.488281 437.628906 524.933594 400.996094 443.238281 C 379.15625 378.859375 544.15625 265.308594 757.988281 212.882813 C 709.433594 176.972656 649.382813 155.703125 584.34375 155.703125 C 422.972656 155.703125 292.097656 286.554688 292.097656 447.960938 C 292.097656 539.875 334.570313 621.835938 400.871094 675.390625 C 492.152344 584.859375 591.722656 535.246094 622.644531 482.851563 Z M 768.511719 221.050781 C 611.640625 272.980469 481.800781 352.675781 484.699219 400.824219 C 493.023438 470.597656 847.066406 307.578125 762.28125 461.84375 C 702.46875 558.96875 548.453125 593.417969 419.140625 689.042969 C 466.148438 721.308594 523.050781 740.238281 584.34375 740.238281 C 745.796875 740.238281 876.648438 609.386719 876.648438 447.960938 C 876.648438 356.363281 834.46875 274.636719 768.511719 221.050781 Z M 874.9375 191.394531 C 834.925781 196.234375 795.714844 203.636719 757.988281 212.882813 C 761.566406 215.523438 765.078125 218.253906 768.511719 221.050781 C 803.058594 209.621094 838.890625 199.503906 874.9375 191.394531 Z M 278.5 850.136719 C 315.257813 779.648438 365.058594 729.023438 419.140625 689.042969 C 412.863281 684.730469 406.796875 680.171875 400.871094 675.390625 C 354.640625 721.238281 310.511719 777.566406 278.5 850.136719 Z M 278.5 850.136719 "/>
<path style=" stroke:none;fill-rule:nonzero;fill:rgb(42.745098%,43.529412%,44.313725%);fill-opacity:1;" d="M 572.511719 869.886719 C 319.890625 869.886719 115.09375 653.289063 115.09375 386.128906 C 115.09375 349.335938 119.113281 313.550781 126.464844 279.121094 C 105.621094 335.894531 94.066406 397.566406 94.066406 462.113281 C 94.066406 741.546875 296.429688 987.703125 574.875 985.546875 C 868.859375 983.257813 1050.945313 741.546875 1050.945313 462.113281 C 1050.945313 397.566406 1039.394531 335.894531 1018.539063 279.121094 C 1025.917969 313.550781 1029.921875 349.335938 1029.921875 386.128906 C 1029.921875 653.289063 825.128906 869.886719 572.511719 869.886719 Z M 572.511719 869.886719 "/>
<path style=" stroke:none;fill-rule:nonzero;fill:url(#linear0);" d="M 648.128906 876.746094 C 868.734375 894.953125 841.671875 322.511719 1040.046875 324.949219 C 973.90625 310.523438 871.980469 319.472656 852.382813 322.886719 C 699.039063 375.378906 699.039063 776.460938 562.132813 825.167969 C 573 843.796875 614.21875 876.746094 648.128906 876.746094 Z M 648.128906 876.746094 "/>
<path style=" stroke:none;fill-rule:nonzero;fill:url(#linear1);" d="M 272.609375 321.511719 C 427.21875 336.988281 486.726563 839.421875 613.503906 849.285156 C 569.691406 855.433594 471.078125 844.34375 471.078125 844.34375 C 324.238281 845.242188 255.394531 373.71875 134.898438 329.984375 C 172.453125 315.863281 251.496094 319.410156 272.609375 321.511719 Z M 272.609375 321.511719 "/>
<path style=" stroke:none;fill-rule:nonzero;fill:rgb(0%,63.921569%,70.588235%);fill-opacity:1;" d="M 585.261719 849.636719 C 334.621094 849.636719 131.429688 633.039063 131.429688 365.878906 C 131.429688 329.085938 135.421875 293.300781 142.710938 258.871094 C 122.03125 315.644531 110.566406 377.316406 110.566406 441.863281 C 110.566406 721.296875 311.347656 967.453125 587.609375 965.296875 C 879.292969 963.007813 1059.945313 721.296875 1059.945313 441.863281 C 1059.945313 377.316406 1048.484375 315.644531 1027.792969 258.871094 C 1035.113281 293.300781 1039.085938 329.085938 1039.085938 365.878906 C 1039.085938 633.039063 835.898438 849.636719 585.261719 849.636719 Z M 585.261719 849.636719 "/>
<path style=" stroke:none;fill-rule:nonzero;fill:rgb(0%,63.921569%,70.588235%);fill-opacity:1;" d="M 618.894531 467.851563 C 681.851563 366.488281 433.878906 509.933594 397.246094 428.238281 C 375.40625 363.859375 540.40625 250.308594 754.238281 197.882813 C 705.683594 161.972656 645.632813 140.703125 580.59375 140.703125 C 419.222656 140.703125 288.347656 271.554688 288.347656 432.960938 C 288.347656 524.875 330.820313 606.835938 397.121094 660.390625 C 488.402344 569.859375 587.972656 520.246094 618.894531 467.851563 Z M 764.761719 206.050781 C 607.890625 257.980469 478.050781 337.675781 480.949219 385.824219 C 489.273438 455.597656 843.316406 292.578125 758.53125 446.84375 C 698.71875 543.96875 544.703125 578.417969 415.390625 674.042969 C 462.398438 706.308594 519.300781 725.238281 580.59375 725.238281 C 742.046875 725.238281 872.898438 594.386719 872.898438 432.960938 C 872.898438 341.363281 830.71875 259.636719 764.761719 206.050781 Z M 871.1875 176.394531 C 831.175781 181.234375 791.964844 188.636719 754.238281 197.882813 C 757.816406 200.523438 761.328125 203.253906 764.761719 206.050781 C 799.308594 194.621094 835.140625 184.503906 871.1875 176.394531 Z M 274.75 835.136719 C 311.507813 764.648438 361.308594 714.023438 415.390625 674.042969 C 409.113281 669.730469 403.046875 665.171875 397.121094 660.390625 C 350.890625 706.238281 306.761719 762.566406 274.75 835.136719 Z M 274.75 835.136719 "/>
</g>
</g>
</svg>
